<svg xmlns="http://www.w3.org/2000/svg" width="32" height="32" viewBox="0 0 24 24"><path fill="currentColor" d="M9.8 16.275q-.3-.3-.288-.725t.313-.725L11.65 13H4q-.425 0-.713-.288T3 12q0-.425.288-.713T4 11h7.65L9.8 9.15q-.3-.3-.3-.713t.3-.712q.3-.3.713-.3t.712.3L14.8 11.3q.15.15.213.325t.062.375q0 .2-.062.375t-.213.325l-3.6 3.6q-.275.275-.687.275t-.713-.3ZM5 21q-.825 0-1.413-.588T3 19v-3q0-.425.288-.713T4 15q.425 0 .713.288T5 16v3h14V5H5v3q0 .425-.288.713T4 9q-.425 0-.713-.288T3 8V5q0-.825.588-1.413T5 3h14q.825 0 1.413.588T21 5v14q0 .825-.588 1.413T19 21H5Z"/></svg>